HIERARCHY
ROOT Hips
{
  OFFSET 263.056 91.6644 -274.608
  CHANNELS 6 Xposition Yposition Zposition Zrotation Xrotation Yrotation
  JOINT LeftUpLeg
  {
    OFFSET 8.64259 1.95398 -2.38835
    CHANNELS 3 Zrotation Xrotation Yrotation
    JOINT LeftLeg
    {
      OFFSET 43.7702 0 0
      CHANNELS 3 Zrotation Xrotation Yrotation
      JOINT LeftFoot
      {
        OFFSET 40.6238 0 0
        CHANNELS 3 Zrotation Xrotation Yrotation
        JOINT LeftToeBase
        {
          OFFSET 12.7242 0 0
          CHANNELS 3 Zrotation Xrotation Yrotation
          End Site
          {
            OFFSET 0 0 0
          }
        }
      }
    }
  }
  JOINT RightUpLeg
  {
    OFFSET -8.2249 1.95398 -2.59336
    CHANNELS 3 Zrotation Xrotation Yrotation
    JOINT RightLeg
    {
      OFFSET 43.5653 0 0
      CHANNELS 3 Zrotation Xrotation Yrotation
      JOINT RightFoot
      {
        OFFSET 40.6238 0 0
        CHANNELS 3 Zrotation Xrotation Yrotation
        JOINT RightToeBase
        {
          OFFSET 12.7242 0 0
          CHANNELS 3 Zrotation Xrotation Yrotation
          End Site
          {
            OFFSET 0 0 0
          }
        }
      }
    }
  }
  JOINT Spine
  {
    OFFSET 0.165834 0.87714 6.61349
    CHANNELS 3 Zrotation Xrotation Yrotation
    JOINT Spine1
    {
      OFFSET 7.38963 1.71661e-005 0
      CHANNELS 3 Zrotation Xrotation Yrotation
      JOINT Spine2
      {
        OFFSET 11.9445 1.14441e-005 0
        CHANNELS 3 Zrotation Xrotation Yrotation
        JOINT Spine3
        {
          OFFSET 14.7254 4.19617e-005 0
          CHANNELS 3 Zrotation Xrotation Yrotation
          JOINT Spine4
          {
            OFFSET 10.9679 0 0
            CHANNELS 3 Zrotation Xrotation Yrotation
            JOINT RightShoulder
            {
              OFFSET 2.46616 -1.6653 3.69651
              CHANNELS 3 Zrotation Xrotation Yrotation
              JOINT RightArm
              {
                OFFSET 13.0012 0 0
                CHANNELS 3 Zrotation Xrotation Yrotation
                JOINT RightForeArm
                {
                  OFFSET 28.7848 1.52588e-005 0
                  CHANNELS 3 Zrotation Xrotation Yrotation
                  JOINT RightHand
                  {
                    OFFSET 26.5688 1.52588e-005 0
                    CHANNELS 3 Zrotation Xrotation Yrotation
                    End Site
                    {
                      OFFSET 0 0 0
                    }
                  }
                }
              }
            }
            JOINT LeftShoulder
            {
              OFFSET 2.38034 -1.29275 -3.7523
              CHANNELS 3 Zrotation Xrotation Yrotation
              JOINT LeftArm
              {
                OFFSET 16.3182 6.10352e-005 0
                CHANNELS 3 Zrotation Xrotation Yrotation
                JOINT LeftForeArm
                {
                  OFFSET 27.0901 0 0
                  CHANNELS 3 Zrotation Xrotation Yrotation
                  JOINT LeftHand
                  {
                    OFFSET 24.5451 1.52588e-005 0
                    CHANNELS 3 Zrotation Xrotation Yrotation
                    End Site
                    {
                      OFFSET 0 0 0
                    }
                  }
                }
              }
            }
            JOINT Neck
            {
              OFFSET 5.0226 -0.0266342 0
              CHANNELS 3 Zrotation Xrotation Yrotation
              JOINT Head
              {
                OFFSET 6.69364 2.86102e-005 0
                CHANNELS 3 Zrotation Xrotation Yrotation
                End Site
                {
                  OFFSET 0 0 0
                }
              }
            }
          }
        }
      }
    }
  }
}
MOTION
Frames:	9
Frame Time:	0.0416667
46.8712 91.8052 2.08714 127.693 -82.7687 130.964 -174.838 -3.61877 87.1522 -38.7155 15.6862 1.46384 63.8977 10.3975 12.7642 54.8832 27.536 -2.61158 -177.069 23.182 91.0672 -27.4157 -12.6696 -4.64875 63.4507 -1.44625 -0.807098 61.5725 2.66445 2.85101 -1.19784 8.05163 -90.5474 10.7675 -2.63795 -0.84739 -0.900883 -2.67269 -0.730395 -23.4512 -2.26127 -1.60131 -3.43856 -2.26128 -1.60132 78.5865 -54.0293 -116.344 23.2651 -2.35309 18.5005 -8.11731 -10.15 -41.3109 -9.20929 -0.788773 4.55477 -105.249 -42.6335 53.0512 -23.239 4.33187 4.18377 3.35071 1.10363 -39.3177 15.4291 1.0342 2.79148 4.00774 14.0875 3.7838 3.34146 13.5469 6.34096 
48.4133 91.2539 9.91413 121.539 -80.6058 126.036 -172.15 3.90228 91.0184 -54.2266 12.1258 -0.0201915 53.9368 -0.532834 8.52086 46.9441 23.749 13.6483 -177.828 22.2118 92.2739 -36.7766 -7.66769 -4.62321 67.3001 -2.5983 -1.38587 54.1893 3.11826 9.55916 -1.02608 8.14244 -90.8289 10.5717 -2.42456 -1.429 -1.09771 -2.48508 -1.32088 -23.6385 -1.88307 -2.09163 -3.62582 -1.88307 -2.09163 78.1414 -53.5738 -117.152 23.4596 -1.33011 16.9141 -5.72153 -8.31371 -37.976 -10.7422 -0.939205 5.04141 -105.827 -42.9932 52.3626 -24.4891 5.13339 3.61749 2.90201 1.29162 -37.615 14.9631 1.01574 2.87796 3.29516 14.5349 3.74066 4.24 14.1007 6.83658 
49.9437 92.6152 17.1355 110.52 -77.6073 113.519 -168.958 12.7779 90.8045 -56.4226 9.36172 -2.26224 52.6135 -1.6483 9.11825 46.3002 22.6484 13.0327 -178.74 16.8857 91.071 -36.0424 -3.72992 -5.14759 69.8221 -3.44389 -1.79677 45.6736 2.22353 13.6837 -0.753265 8.12709 -90.6644 10.6098 -1.80575 -1.1575 -1.06035 -1.85494 -1.07689 -23.5978 -1.37444 -1.64667 -3.58517 -1.37444 -1.64668 77.8014 -53.3914 -117.707 24.6389 -1.71185 15.4818 -5.05556 -7.96072 -37.9468 -11.1558 -1.02488 5.6349 -106.338 -43.148 51.6788 -26.3817 6.26267 3.51179 3.86703 4.40179 -35.394 13.9594 1.04001 3.49646 3.09051 12.842 3.42444 5.74773 12.4968 5.7699 
52.1738 94.1701 24.421 99.3221 -73.3482 100.954 -167.618 19.9989 89.1994 -46.7169 5.84097 -4.22202 56.9972 1.27448 6.80046 48.4629 25.1096 11.7273 -179.633 10.276 90.0709 -31.0906 0.411987 -5.63172 71.0551 -3.70678 -1.90875 41.6737 1.3878 11.8128 -0.417535 7.97226 -90.4067 10.9269 -1.0194 -0.71323 -0.743786 -1.0498 -0.667681 -23.2794 -0.757925 -0.986626 -3.26675 -0.757924 -0.986624 77.8369 -52.9396 -117.839 25.9113 -4.48152 15.1689 -6.47195 -10.6695 -40.7537 -10.7981 -0.96711 5.27834 -105.949 -42.7485 52.0577 -29.0828 7.73677 4.62391 3.76398 6.47124 -32.9498 12.7888 1.0288 4.00964 2.47689 9.56244 1.06678 7.07517 9.80236 6.4545 
54.8277 94.9604 31.6483 93.0543 -69.4694 93.9068 -168.383 23.7552 88.159 -29.4547 -0.122791 -4.62291 59.716 3.51167 6.64019 48.5404 25.3451 12.1284 178.64 3.43132 87.6891 -25.483 2.69065 -4.79161 71.2023 -3.84912 -1.97557 43.2509 1.50443 9.49245 -0.0339933 7.81975 -90.1586 11.2331 -0.141361 -0.301294 -0.437834 -0.154474 -0.294794 -22.9727 -0.0442767 -0.329856 -2.96007 -0.0442687 -0.329856 79.2877 -51.6665 -116.276 26.8523 -6.79478 14.9349 -8.84343 -11.3224 -45.443 -9.67354 -0.802872 4.2807 -104.564 -42.9136 54.2204 -31.6733 8.98096 7.50955 3.80672 7.90702 -32.8426 13.1243 1.1219 4.51712 3.56891 6.60433 0.0973724 6.89838 6.92229 5.24558 
58.3978 94.5288 38.5908 88.5955 -67.818 90.3527 -172.7 25.5286 89.9074 -10.1627 0.474736 -1.99866 59.1153 3.23975 7.20267 47.8049 24.4666 12.4114 176.656 -1.96366 89.2268 -21.8585 2.23145 -3.38214 70.7082 -4.01215 -2.07039 47.0695 1.95887 8.39905 0.42937 7.74693 -90.0647 11.3809 0.824236 -0.211693 -0.289783 0.814105 -0.247774 -22.827 0.849737 0.0458291 -2.81433 0.849743 0.0458282 78.8065 -50.4452 -117.465 24.7813 -9.43244 14.2853 -9.64687 -11.601 -49.1588 -10.4802 -0.842753 4.01464 -103.25 -43.0993 56.3031 -33.7377 7.85658 10.2306 4.23263 8.53448 -31.5177 10.9143 0.859517 3.77028 6.0741 4.05486 0.414284 5.93361 4.06397 2.12034 
62.6229 93.3406 45.7348 87.4091 -68.7378 90.1537 -174.642 28.399 92.6616 -5.86623 5.38031 -0.0776802 61.6256 4.20741 8.34504 47.5274 23.316 9.85281 175.731 -5.67148 87.2483 -22.5633 -1.02367 -3.68687 68.2645 -3.62043 -1.93969 53.7283 2.39742 5.43934 0.885621 7.71403 -89.9188 11.4472 1.80013 -0.0208192 -0.222515 1.79748 -0.100048 -22.7671 1.72314 0.52132 -2.75444 1.72315 0.521324 79.6743 -48.4587 -117.005 24.2306 -11.327 11.7308 -10.6552 -13.8491 -49.2733 -11.5244 -0.99411 4.91928 -102.301 -43.5119 57.9368 -35.1751 6.41808 13.8234 4.03659 8.24979 -28.9809 9.7122 0.71392 3.21887 7.80711 2.92009 -1.4209 4.83265 3.34865 2.86129 
68.112 92.1372 53.7074 86.7114 -67.6701 87.9495 -173.091 30.04 91.6603 -13.4426 5.09827 -1.95245 53.9175 -2.76109 5.51041 44.1894 17.8524 4.00362 175.276 -7.26783 84.4389 -28.8663 -5.32368 -5.82945 62.0598 -1.57415 -0.822459 58.8772 3.23633 6.69657 0.994862 7.62644 -89.5462 11.6184 2.19179 0.678023 -0.0508212 2.21951 0.580861 -22.5965 1.88665 1.30558 -2.58385 1.88664 1.30557 79.7152 -49.5868 -116.482 22.5544 -10.6818 11.0052 -11.0398 -14.771 -47.6309 -11.2968 -0.996348 5.12353 -102.759 -43.6936 57.3239 -36.2236 6.17255 16.2272 3.11067 9.38519 -24.4427 9.30001 0.82696 4.58652 8.09526 1.3929 -2.14478 3.67913 1.9239 1.84233 
74.1753 91.6403 61.5606 87.5461 -62.8844 86.0129 -171.425 30.9294 87.1418 -26.1994 10.8004 -4.23637 54.8402 -1.87873 8.26677 43.1891 14.2111 -11.5605 176.51 -2.84323 82.7856 -42.2003 -0.980156 -7.17127 44.7509 3.18947 3.15751 47.9235 2.54571 6.36675 0.754995 7.62571 -89.1656 11.6073 1.89273 1.46686 -0.0630697 1.95544 1.38213 -22.5979 1.36448 1.96783 -2.58528 1.36446 1.96781 79.235 -50.5595 -116.793 23.3616 -8.80263 12.7155 -10.4198 -14.3837 -45.5626 -11.7753 -1.07599 5.67759 -103.266 -43.3152 56.3783 -35.9392 6.8632 14.9528 1.88977 10.8331 -19.9216 5.72397 0.520112 4.21007 7.75278 -0.192819 -2.42104 2.70196 0.367703 1.12549 
